<?xml version="1.0" encoding="UTF-8" standalone="no"?>
<svg
   xmlns:dc="http://purl.org/dc/elements/1.1/"
   xmlns:cc="http://creativecommons.org/ns#"
   xmlns:rdf="http://www.w3.org/1999/02/22-rdf-syntax-ns#"
   xmlns:svg="http://www.w3.org/2000/svg"
   xmlns="http://www.w3.org/2000/svg"
   version="1.1"
   id="Camada_1"
   x="0px"
   y="0px"
   viewBox="0 0 319.98999 70.201096"
   xml:space="preserve"
   width="319.98999"
   height="70.201096"><metadata
   id="metadata169"><rdf:RDF><cc:Work
       rdf:about=""><dc:format>image/svg+xml</dc:format><dc:type
         rdf:resource="http://purl.org/dc/dcmitype/StillImage" /><dc:title></dc:title></cc:Work></rdf:RDF></metadata><defs
   id="defs167">
	
	
	
	
	
	
	
	
	
	
	
	
	
	
	
	<linearGradient
   y2="382.60489"
   x2="367.39801"
   y1="382.60489"
   x1="128.6752"
   gradientUnits="userSpaceOnUse"
   id="SVGID_1_">
		<stop
   id="stop147"
   style="stop-color:#FFFFFF"
   offset="0" />
		<stop
   id="stop149"
   style="stop-color:#EFEFEF"
   offset="0.076" />
		<stop
   id="stop151"
   style="stop-color:#C6C6C6"
   offset="0.2244" />
		<stop
   id="stop153"
   style="stop-color:#828282"
   offset="0.4305" />
		<stop
   id="stop155"
   style="stop-color:#272727"
   offset="0.6839" />
		<stop
   id="stop157"
   style="stop-color:#000000"
   offset="0.7868" />
	</linearGradient>
	
</defs>
<style
   type="text/css"
   id="style115">
	.st0{fill:#949494;}
	.st1{fill:#146AB7;}
	.st2{fill:#010101;}
	.st3{fill:#FEFEFE;}
	.st4{fill:url(#SVGID_1_);}
</style>
<path
   id="path117"
   d="M 25.058594 0.001953125 C 24.077188 0.016015625 23.089609 0.086171875 22.099609 0.20117188 C 19.799609 0.47117188 17.619375 1.190625 15.609375 2.390625 C 10.079375 5.690625 9.3092969 13.880781 14.279297 17.800781 C 15.909297 19.090781 17.770469 19.941094 19.730469 20.621094 C 21.670469 21.291094 23.689531 21.751172 25.519531 22.701172 C 26.899531 23.411172 27.019844 24.941172 25.839844 25.951172 C 25.159844 26.531172 24.330234 26.691641 23.490234 26.681641 C 19.090234 26.611641 15.440547 24.881563 12.560547 21.601562 C 11.860547 20.801563 11.529141 20.770312 10.869141 21.570312 C 9.8291406 22.840312 8.6898437 24.020469 7.5898438 25.230469 C 6.1498438 26.820469 6.1501563 26.821797 7.6601562 28.341797 C 11.950156 32.631797 17.260391 34.321875 21.900391 34.421875 C 26.150391 34.471875 28.690703 33.950781 31.220703 32.800781 C 36.460703 30.420781 38.949453 24.341094 36.689453 19.371094 C 35.539453 16.851094 33.320859 15.530312 30.880859 14.570312 C 28.580859 13.660313 26.200391 12.950781 23.900391 12.050781 C 22.170391 11.370781 21.600547 10.580312 21.810547 9.5703125 C 22.040547 8.5103125 23.149609 7.8910937 24.849609 7.8710938 C 28.549609 7.8310937 31.630859 9.211875 34.130859 11.921875 C 34.400859 12.221875 34.570078 12.641094 35.080078 12.121094 C 36.700078 10.441094 38.359531 8.7903906 40.019531 7.1503906 C 40.399531 6.7803906 40.300234 6.5214063 39.990234 6.1914062 C 38.190234 4.2614063 36.109687 2.6908594 33.679688 1.6308594 C 30.897188 0.41585938 28.002813 -0.040234375 25.058594 0.001953125 z M 158.75977 0.38085938 C 155.17977 1.3108594 151.76008 2.2005469 148.33008 3.0605469 C 147.85008 3.1805469 147.80094 3.5301563 147.71094 3.9101562 C 147.43094 5.1301563 147.09086 6.3403125 146.88086 7.5703125 C 146.74086 8.3603125 146.38914 8.6007813 145.61914 8.5507812 C 144.71914 8.4907813 143.81039 8.56125 142.90039 8.53125 C 142.35039 8.51125 142.08094 8.6919531 141.96094 9.2519531 C 141.54094 11.151953 141.09086 13.041641 140.63086 14.931641 C 140.51086 15.441641 140.66945 15.621328 141.18945 15.611328 C 142.09945 15.581328 143.01016 15.682031 143.91016 15.582031 C 144.92016 15.462031 144.94 15.891875 144.75 16.671875 C 144.06 19.611875 143.26977 22.531719 142.75977 25.511719 C 142.12977 29.181719 143.94039 32.35125 147.40039 33.53125 C 150.92039 34.74125 154.46047 34.481953 157.98047 33.501953 C 158.48047 33.361953 158.71906 33.070781 158.78906 32.550781 C 159.01906 30.930781 159.27078 29.320937 159.55078 27.710938 C 159.65078 27.140937 159.48094 27.030156 158.96094 27.160156 C 157.84094 27.440156 156.70078 27.502031 155.55078 27.332031 C 153.80078 27.072031 152.89906 25.791016 153.28906 24.041016 C 153.85906 21.501016 154.46953 18.971875 155.01953 16.421875 C 155.15953 15.791875 155.44008 15.581563 156.08008 15.601562 C 157.72008 15.641563 159.36 15.591094 161 15.621094 C 161.59 15.631094 161.85047 15.451797 161.98047 14.841797 C 162.36047 13.011797 162.78 11.171328 163.25 9.3613281 C 163.43 8.6713281 163.24984 8.5310156 162.58984 8.5410156 C 160.94984 8.5810156 159.30992 8.5405469 157.66992 8.5605469 C 157.06992 8.5705469 156.87906 8.44125 157.03906 7.78125 C 157.62906 5.39125 158.15977 2.9808594 158.75977 0.38085938 z M 77.613281 8.0722656 C 74.592187 8.0464844 71.615234 9.4328906 69.740234 11.900391 C 69.430234 12.300391 69.130234 12.700703 68.740234 13.220703 C 68.130234 11.290703 67.210938 9.8016406 65.460938 8.9316406 C 62.380937 7.4016406 57.910234 8.0020312 55.240234 10.332031 C 54.350234 11.112031 53.589297 12.011953 52.779297 13.251953 C 52.729297 11.811953 53.07 10.701797 53.25 9.5917969 C 53.36 8.8117969 53.159844 8.5405469 52.339844 8.5605469 C 50.039844 8.6105469 47.729687 8.6105469 45.429688 8.5605469 C 44.629687 8.5405469 44.279844 8.7620312 44.089844 9.5820312 C 42.309844 17.372031 40.499922 25.161406 38.669922 32.941406 C 38.499922 33.641406 38.629141 33.851797 39.369141 33.841797 C 42.189141 33.811797 45.019609 33.811797 47.849609 33.841797 C 48.489609 33.841797 48.740859 33.651953 48.880859 33.001953 C 49.810859 28.791953 50.789766 24.590625 51.759766 20.390625 C 52.049766 19.130625 52.389063 17.880625 53.289062 16.890625 C 54.279062 15.810625 55.89 15.441484 57 16.021484 C 57.99 16.551484 58.300156 17.611719 57.910156 19.261719 C 56.840156 23.831719 55.780156 28.400938 54.660156 32.960938 C 54.480156 33.700938 54.629844 33.851797 55.339844 33.841797 C 58.089844 33.811797 60.849375 33.781328 63.609375 33.861328 C 64.529375 33.881328 64.790703 33.541953 64.970703 32.751953 C 65.990703 28.311953 67.039609 23.881172 68.099609 19.451172 C 68.389609 18.281172 68.889141 17.211406 69.869141 16.441406 C 70.789141 15.711406 72.410938 15.511797 73.210938 16.091797 C 74.220937 16.831797 74.289531 17.861953 74.019531 19.001953 C 72.929531 23.671953 71.879766 28.351484 70.759766 33.021484 C 70.589766 33.731484 70.750156 33.851797 71.410156 33.841797 C 74.160156 33.821797 76.919687 33.781328 79.679688 33.861328 C 80.639687 33.891328 80.909844 33.501406 81.089844 32.691406 C 81.889844 29.131406 82.790547 25.591484 83.560547 22.021484 C 84.110547 19.441484 85.049141 16.940469 84.869141 14.230469 C 84.689141 11.590469 83.109375 9.4420312 80.609375 8.5820312 C 79.631875 8.2470313 78.620312 8.0808594 77.613281 8.0722656 z M 139.29297 8.0917969 C 136.66742 8.0924805 134.41188 9.0846875 132.60938 11.210938 C 131.91938 12.030938 131.46969 13.000547 130.67969 13.810547 C 130.94969 12.350547 131.20023 10.900937 131.49023 9.4609375 C 131.61023 8.8809375 131.58984 8.5407813 130.83984 8.5507812 C 128.28984 8.5807812 125.74922 8.5705469 123.19922 8.5605469 C 122.70922 8.5505469 122.46961 8.7104688 122.34961 9.2304688 C 120.52961 17.150469 118.70984 25.070469 116.83984 32.980469 C 116.64984 33.790469 116.92055 33.832031 117.56055 33.832031 C 120.32055 33.812031 123.08008 33.781562 125.83008 33.851562 C 126.67008 33.871563 126.96086 33.570547 127.13086 32.810547 C 127.89086 29.380547 128.65047 25.960781 129.48047 22.550781 C 130.62047 17.820781 134.0993 15.651484 138.7793 16.771484 C 139.5293 16.951484 139.52062 16.531094 139.64062 16.121094 C 140.25062 13.981094 140.83945 11.841172 141.43945 9.7011719 C 141.77945 8.5011719 141.66945 8.2703906 140.43945 8.1503906 C 140.04945 8.1103906 139.66805 8.0916992 139.29297 8.0917969 z M 98.716797 8.1015625 C 95.58407 8.1989038 93.034531 9.805625 91.019531 12.421875 C 87.769531 16.641875 86.540937 21.521484 87.210938 26.771484 C 88.120937 33.881484 94.940547 35.841953 99.560547 33.251953 C 101.11055 32.381953 102.23078 31.060859 103.30078 29.630859 C 103.10078 30.680859 102.91922 31.731719 102.69922 32.761719 C 102.55922 33.451719 102.59953 33.840313 103.51953 33.820312 C 106.02953 33.760312 108.55055 33.780313 111.06055 33.820312 C 111.75055 33.830313 111.95008 33.551172 112.08008 32.951172 C 112.81008 29.731172 113.56055 26.510781 114.31055 23.300781 C 115.35055 18.800781 116.40094 14.300781 117.46094 9.8007812 C 117.64094 9.0307812 117.72008 8.4914844 116.58008 8.5214844 C 113.86008 8.5914844 111.13016 8.57125 108.41016 8.53125 C 107.73016 8.52125 107.4193 8.7401563 107.2793 9.4101562 C 107.0093 10.730156 106.67984 12.040234 106.33984 13.490234 C 106.22984 13.200234 106.15914 13.040859 106.11914 12.880859 C 105.39914 10.240859 103.59047 8.76125 100.98047 8.28125 C 100.19484 8.136875 99.439734 8.0790991 98.716797 8.1015625 z M 52.689453 13.351562 L 52.720703 13.431641 L 52.710938 13.429688 L 52.689453 13.351562 z M 101.85156 15.404297 C 103.28781 15.327891 104.57227 16.344453 104.75977 18.001953 C 104.80977 18.451953 104.76953 18.911328 104.76953 19.361328 C 104.72953 21.681328 104.10016 23.811875 102.66016 25.671875 C 101.76016 26.811875 100.6007 27.191328 99.220703 26.861328 C 98.110703 26.601328 97.320703 25.522031 97.220703 24.082031 C 97.040703 21.572031 97.610781 19.240391 99.050781 17.150391 C 99.410781 16.630391 99.850391 16.191328 100.40039 15.861328 C 100.87789 15.576328 101.37281 15.429766 101.85156 15.404297 z "
   style="fill:#a6a6a6;fill-opacity:1" /><path
   id="path121"
   d="M 181.93945 0.05078125 C 176.27945 0.07078125 172.64953 0.7003125 169.51953 3.0703125 C 165.09953 6.4203125 164.48953 13.071484 168.26953 17.021484 C 169.86953 18.691484 171.92031 19.671406 174.07031 20.441406 C 176.10031 21.171406 178.18992 21.711797 180.16992 22.591797 C 180.93992 22.941797 181.50922 23.481641 181.44922 24.431641 C 181.38922 25.351641 180.90031 25.981328 180.07031 26.361328 C 179.52031 26.611328 178.93984 26.711172 178.33984 26.701172 C 173.76984 26.651172 170.04937 24.781562 167.10938 21.351562 C 166.63937 20.801562 166.42094 20.790547 165.96094 21.310547 C 164.56094 22.900547 163.14992 24.501484 161.66992 26.021484 C 161.10992 26.601484 161.22945 26.901172 161.68945 27.451172 C 167.49945 34.351172 178.33953 35.891094 185.26953 33.121094 C 188.38953 31.881094 190.79977 29.810234 191.75977 26.490234 C 193.15977 21.630234 191.90984 17.601172 187.08984 15.201172 C 185.90984 14.611172 184.65016 14.180469 183.41016 13.730469 C 181.45016 13.020469 179.38008 12.590469 177.58008 11.480469 C 176.95008 11.100469 176.52961 10.58125 176.59961 9.78125 C 176.66961 8.95125 177.20016 8.471875 177.91016 8.171875 C 178.39016 7.961875 178.90945 7.9008594 179.43945 7.8808594 C 183.26945 7.7608594 186.46023 9.1402344 188.99023 11.990234 C 189.39023 12.450234 189.59977 12.451484 190.00977 12.021484 C 191.52977 10.431484 193.06039 8.8617969 194.65039 7.3417969 C 195.19039 6.8217969 195.13063 6.54125 194.64062 6.03125 C 190.66062 1.89125 185.78945 -0.01921875 181.93945 0.05078125 z M 299.35352 8.0195312 C 297.09727 8.1157812 294.86422 8.7260938 292.69922 9.8710938 C 287.61922 12.571094 285.64031 17.161406 285.57031 22.691406 C 285.50031 27.871406 288.24086 31.780625 293.13086 33.390625 C 297.62086 34.860625 302.08086 34.561797 306.38086 32.591797 C 308.29086 31.711797 309.84961 30.411953 310.84961 28.501953 C 311.12961 27.961953 311.03094 27.750547 310.46094 27.560547 C 308.25094 26.830547 306.03961 26.09125 303.84961 25.28125 C 303.04961 24.98125 302.61937 25.022031 302.10938 25.832031 C 301.15937 27.352031 299.53008 27.800547 297.58008 27.310547 C 296.13008 26.940547 295.2007 25.860859 294.9707 24.380859 C 294.8507 23.640859 294.97984 23.341328 295.83984 23.361328 C 298.34984 23.421328 300.87086 23.380859 303.38086 23.380859 C 305.96086 23.380859 308.53914 23.350625 311.11914 23.390625 C 311.79914 23.410625 312.04062 23.140781 312.14062 22.550781 C 312.40063 21.100781 312.48937 19.641641 312.35938 18.181641 C 311.99938 14.031641 310.07039 10.831953 306.15039 9.2519531 C 303.89039 8.3419531 301.60977 7.9232813 299.35352 8.0195312 z M 209.91992 8.0761719 C 208.90586 8.1072656 207.87961 8.2203906 206.84961 8.4003906 C 199.72961 9.6403906 195.25969 15.190547 195.17969 22.560547 C 195.13969 26.020547 196.21039 29.001484 198.90039 31.271484 C 201.62039 33.571484 204.88023 34.291016 208.74023 34.291016 C 209.47023 34.271016 210.58039 34.24125 211.65039 34.03125 C 215.53039 33.27125 218.54094 31.311016 220.46094 27.791016 C 220.81094 27.151016 220.68953 26.940234 220.01953 26.740234 C 217.78953 26.060234 215.55937 25.381563 213.35938 24.601562 C 212.35938 24.251563 211.80078 24.180625 211.30078 25.390625 C 210.66078 26.950625 209.17937 27.570312 207.60938 27.320312 C 206.30937 27.110313 205.29969 26.220547 205.17969 24.810547 C 204.89969 21.650547 205.57922 18.710234 207.69922 16.240234 C 208.62922 15.160234 210.11008 14.861328 211.33008 15.361328 C 212.63008 15.891328 212.75031 17.050703 212.82031 18.220703 C 212.83031 18.320703 212.84031 18.43125 212.82031 18.53125 C 212.70031 19.14125 212.99953 19.220625 213.51953 19.140625 C 216.23953 18.720625 218.95945 18.311406 221.68945 17.941406 C 222.23945 17.871406 222.35984 17.650859 222.33984 17.130859 C 222.19984 14.280859 220.90984 12.060703 218.58984 10.470703 C 215.90484 8.6332031 212.96211 7.9828906 209.91992 8.0761719 z M 238.96289 8.1113281 C 231.74015 7.9790161 226.24258 11.813281 224.4707 18.582031 C 223.4607 22.422031 223.55031 26.201016 226.07031 29.541016 C 228.76031 33.101016 232.55008 34.291719 236.83008 34.261719 C 237.18008 34.261719 237.52914 34.261953 237.86914 34.251953 C 244.11914 34.101953 249.09039 30.471484 250.90039 24.521484 C 252.12039 20.521484 252.21008 16.541172 249.58008 12.951172 C 247.33008 9.8811719 244.12969 8.5214063 240.42969 8.1914062 C 239.93344 8.1470313 239.44441 8.1201489 238.96289 8.1113281 z M 274.53906 8.1328125 C 272.14656 8.2823437 270.07406 9.4217969 268.28906 11.341797 C 267.82906 11.841797 267.43977 12.391875 267.00977 12.921875 C 267.02977 11.701875 267.18945 10.540156 267.43945 9.4101562 C 267.58945 8.7701563 267.40078 8.630625 266.80078 8.640625 C 264.25078 8.660625 261.71016 8.6808594 259.16016 8.6308594 C 258.47016 8.6208594 258.26086 8.9004687 258.13086 9.4804688 C 255.52086 20.820469 252.90953 32.171719 250.26953 43.511719 C 250.11953 44.191719 250.22016 44.371328 250.91016 44.361328 C 253.77016 44.331328 256.63023 44.331328 259.49023 44.361328 C 260.10023 44.371328 260.31922 44.150547 260.44922 43.560547 C 260.96922 41.070547 261.54914 38.600859 262.11914 36.130859 C 262.64914 33.800859 263.19047 31.470625 263.73047 29.140625 C 264.66047 31.860625 266.48914 33.401016 269.11914 34.041016 C 272.69914 34.871016 275.81922 33.941406 278.19922 31.191406 C 282.55922 26.161406 283.88906 20.271797 282.53906 13.841797 C 281.93906 10.951797 280.05906 8.9303125 277.03906 8.3203125 C 276.16906 8.1428125 275.33656 8.0829688 274.53906 8.1328125 z M 266.85938 13.210938 L 266.78906 13.251953 L 266.79102 13.240234 L 266.85938 13.210938 z M 299.96094 14.960938 C 301.87094 14.980938 303.22023 16.770859 302.74023 18.630859 C 302.63023 19.090859 302.30953 19.011719 302.01953 19.011719 C 301.04953 19.021719 300.06961 19.011719 299.09961 19.011719 C 298.08961 19.011719 297.08008 19.001719 296.08008 19.011719 C 295.70008 19.011719 295.50961 18.950469 295.59961 18.480469 C 295.97961 16.550469 297.96094 14.940938 299.96094 14.960938 z M 238.89062 15.041016 C 240.57063 15.141016 241.61945 16.222031 241.68945 18.082031 C 241.77945 20.672031 241.21008 23.121797 239.83008 25.341797 C 238.71008 27.131797 237.40984 27.710703 235.83984 27.220703 C 234.43984 26.780703 233.78031 25.582031 233.82031 23.082031 C 233.98031 21.082031 234.5607 18.780234 235.9707 16.740234 C 236.6607 15.720234 237.55062 14.961016 238.89062 15.041016 z M 270.10352 15.388672 C 270.41602 15.402422 270.74258 15.467031 271.08008 15.582031 C 272.38008 16.022031 272.83047 17.070312 272.98047 18.320312 C 273.01047 18.630313 273.01906 18.941562 273.03906 19.351562 C 272.82906 21.731562 272.27953 24.070937 270.51953 25.960938 C 269.59953 26.950938 268.45945 27.271094 267.18945 26.871094 C 266.02945 26.501094 265.49086 25.540156 265.38086 24.410156 C 265.10086 21.490156 265.72969 18.80125 267.67969 16.53125 C 268.34719 15.75125 269.16602 15.347422 270.10352 15.388672 z "
   style="fill:#3b83c3;fill-opacity:1" /><path
   id="path127"
   d="m 233.76,69.9911 c 2.99,-4.86 5.88,-9.56 8.77,-14.26 1.11,-1.81 2.24,-3.6 3.33,-5.42 0.23,-0.38 0.43,-0.62 0.95,-0.62 8.89,0.02 17.79,0.01 26.84,0.01 -1.04,1.7 -2.02,3.32 -3.01,4.93 -3,4.89 -6.01,9.77 -9.02,14.66 -0.23,0.38 -0.42,0.72 -1.01,0.71 -8.89,-0.02 -17.78,-0.01 -26.85,-0.01 z"
   class="st2" /><path
   id="path133"
   d="m 303.41,49.7111 c -4.12,6.7 -8.14,13.23 -12.16,19.78 -0.22,0.37 -0.46,0.52 -0.9,0.52 -7.22,-0.01 -14.43,-0.01 -21.81,-0.01 0.89,-1.45 1.71,-2.8 2.54,-4.14 3.15,-5.12 6.3,-10.25 9.45,-15.37 0.25,-0.4 0.42,-0.8 1.07,-0.79 7.21,0.02 14.43,0.01 21.81,0.01 z"
   class="st2" /><path
   id="path141"
   d="m 298.28,69.9911 c 2.6,-4.22 5.19,-8.44 7.79,-12.66 1.42,-2.31 2.83,-4.63 4.25,-6.94 0.17,-0.19 0.35,-0.37 0.52,-0.56 3.05,0 6.1,0 9.15,0 -0.06,6.79 -0.12,13.58 -0.18,20.37 -7.18,-0.06 -14.35,-0.13 -21.53,-0.21 z"
   class="st2" /><polygon
   style="fill:url(#SVGID_1_)"
   id="polygon160"
   points="354.32,392.73 128.68,392.73 128.68,372.48 367.4,372.5 "
   class="st4"
   transform="translate(-128.68,-322.7589)" />
</svg>
