<?xml version="1.0" encoding="utf-8"?>
<!-- Generator: Adobe Illustrator 24.2.1, SVG Export Plug-In . SVG Version: 6.00 Build 0)  -->
<svg version="1.1" id="Camada_1" xmlns="http://www.w3.org/2000/svg" xmlns:xlink="http://www.w3.org/1999/xlink" x="0px" y="0px"
	 viewBox="0 0 612 792" style="enable-background:new 0 0 612 792;" xml:space="preserve">
<style type="text/css">
	.st0{fill:#105088;}
	.st1{fill:#043157;}
	.st2{fill:#F9FAFB;}
	.st3{fill:#FFFFFF;}
</style>
<g>
	<path class="st0" d="M499.74,291.5c0,44.37-90.8,79.92-206.62,79.92S83.41,335.45,83.41,291.08s93.89-80.34,209.71-80.34
		S499.74,247.13,499.74,291.5z"/>
	<ellipse class="st1" cx="289.96" cy="291.08" rx="172.51" ry="64.3"/>
	<path class="st2" d="M191.49,284.79c6.76-5.41,11.53-5.21,14.72,0.5c2.04-2.67,4.48-4.46,8.06-4.35c4.81,0.14,7.64,3.29,6.68,8.01
		c-0.98,4.8-2.28,9.54-3.31,14.33c-0.27,1.25-0.71,1.69-2,1.64c-2.6-0.1-5.2-0.03-7.97-0.03c1.02-4.3,2.05-8.37,2.93-12.47
		c0.31-1.44,1.04-3.42-1.08-3.98c-1.99-0.52-3.24,0.96-3.72,2.78c-1.06,3.99-2.07,8-2.92,12.04c-0.28,1.32-0.76,1.7-2.03,1.66
		c-2.59-0.08-5.19-0.02-7.98-0.02c1.06-4.43,2.06-8.61,3.04-12.79c0.34-1.46,0.76-3.12-1.23-3.66c-1.82-0.49-3.05,0.68-3.49,2.29
		c-1.09,3.98-2.13,8-2.91,12.05c-0.34,1.77-1.08,2.3-2.74,2.13c-1.03-0.11-2.08-0.02-3.13-0.02c-4.37,0-4.35,0.01-3.38-4.11
		c1.37-5.78,2.75-11.57,4.01-17.38c0.31-1.43,0.8-2.14,2.37-1.95c1.11,0.13,2.26,0.03,3.39,0.03
		C192.04,281.49,192.04,281.49,191.49,284.79z"/>
	<path class="st2" d="M287.29,281.49c1.57,0,2.95,0.11,4.31-0.03c1.63-0.17,1.7,0.62,1.36,1.81c-0.14,0.5-0.36,0.99-0.38,1.5
		c-0.13,2.77-1.46,3.96-4.27,3.4c-2.04-0.4-2.97,0.49-3.15,2.56c-0.13,1.53-0.74,3.01-0.98,4.53c-0.41,2.72,0.25,3.43,3.01,3.47
		c0.85,0.01,1.7,0,2.66,0c-0.08,0.46-0.11,0.79-0.2,1.1c-0.45,1.62,0.27,3.91-1.32,4.78c-2.48,1.35-5.45,1.03-8.18,0.65
		c-4.52-0.63-6.62-3.88-5.8-8.66c0.39-2.29,0.92-4.55,1.48-6.8c0.31-1.27-0.08-1.97-1.34-1.59c-1.07,0.33-2.75-1.61-3.26,0.88
		c-0.09,0.46-0.76,0.12-1.16,0.06c-4.06-0.64-6.65,0.92-7.75,4.92c-0.83,2.98-1.48,6.02-2.09,9.05c-0.27,1.34-0.82,1.88-2.23,1.8
		c-1.99-0.12-4-0.09-5.99-0.01c-1.31,0.06-1.88-0.2-1.53-1.68c1.61-6.79,3.15-13.59,4.7-20.39c0.23-0.99,0.69-1.43,1.78-1.39
		c2.25,0.08,4.5,0.02,7,0.02c-0.06,1.08-0.11,2.04-0.19,3.54c2.24-2.47,4.29-4.41,7.47-4.08c0.78,0.08,1.51,0.23,2.27,0.41
		c3.28,0.78,4.34,0.21,4.89-3.05c0.27-1.61,1.04-2.15,2.42-2.48c2.27-0.53,4.55-1.05,6.76-1.76c1.45-0.46,1.47,0.14,1.21,1.2
		C288.29,277.28,287.82,279.27,287.29,281.49z"/>
	<path class="st2" d="M174.75,284.93c-1.95-2.35-4.49-3.86-7.62-4.35c-0.79-0.12-1.54-0.17-2.3,0.12c-0.72,0.28-1.55,0.39-1.68,1.38
		c-0.15,1.07,0.53,1.67,1.34,2c2.4,0.97,4.9,1.73,7.27,2.76c2.71,1.18,4.92,2.9,5.52,6.06c1.02,5.37-1.71,10.07-7.31,11.78
		c-6.29,1.92-15.01,0.77-20.34-5.26c-0.87-0.98-1.07-1.66,0-2.5c0.07-0.05,0.12-0.13,0.18-0.19c1.16-1.29,2.1-3.19,3.53-3.7
		c1.67-0.59,2.39,1.9,3.84,2.72c2.16,1.22,4.38,2.08,6.8,2.35c1.46,0.17,2.97-0.33,3.31-1.88c0.33-1.5-1.13-1.87-2.27-2.32
		c-2.72-1.08-5.63-1.66-8.11-3.38c-5.4-3.74-5.37-11.43,0.11-15.08c6.28-4.19,17.24-2.7,22.27,2.98c0.7,0.79,0.94,1.29,0.04,2.09
		C177.77,281.9,176.32,283.39,174.75,284.93z"/>
	<path class="st2" d="M296.02,292.44c2.53,3.13,5.66,4.98,9.52,5.55c0.67,0.1,1.38,0.08,2.05-0.04c0.98-0.18,1.85-0.69,1.99-1.78
		c0.17-1.33-0.91-1.77-1.87-2.14c-2.01-0.77-4.11-1.34-6.09-2.2c-5.61-2.42-7.85-7.27-5.67-12.38c1.53-3.6,4.66-5.36,8.3-5.96
		c6.34-1.05,12.27-0.21,17.07,4.67c1,1.02,1.29,1.71,0.02,2.63c-0.42,0.3-0.74,0.73-1.11,1.09c-0.98,0.98-1.83,2.47-2.98,2.75
		c-0.75,0.19-1.89-1.45-2.93-2.16c-2.13-1.44-4.47-2.27-7.09-1.79c-0.75,0.14-1.54,0.39-1.71,1.36c-0.19,1.06,0.44,1.66,1.27,2.01
		c1.67,0.71,3.37,1.34,5.08,1.97c6.42,2.35,8.22,4.68,7.83,10.2c-0.3,4.31-3.81,8.03-9.16,8.92c-6.73,1.12-12.94-0.18-18.07-5.1
		c-1.26-1.21-1.77-2.16-0.2-3.55C293.61,295.3,294.72,293.85,296.02,292.44z"/>
	<path class="st2" d="M385.53,301.69c-0.91,3.86-1.91,7.58-2.61,11.36c-0.28,1.49-0.85,1.83-2.2,1.76
		c-2.51-0.13-6.01,0.83-7.25-0.45c-1.3-1.33,0.61-4.58,1.14-6.97c1.74-7.98,3.67-15.92,5.4-23.91c0.34-1.58,0.93-2.16,2.53-2
		c1.38,0.14,2.79,0.17,4.16,0c2.13-0.26,2.84,0.54,2.01,3.12c2.49-2.14,4.59-3.81,7.61-3.64c3.32,0.19,5.67,1.63,6.53,4.89
		c1.57,5.96,0.43,11.53-3.48,16.27C395.34,306.96,389.79,306.73,385.53,301.69z M393.92,291.67c0.02-1.49,0.16-3.1-1.46-3.85
		c-0.95-0.44-2.01-0.28-2.89,0.52c-1.7,1.54-2.98,6.21-2.25,8.42c0.31,0.94,0.69,1.8,1.83,1.95c1.09,0.13,2.04-0.07,2.76-1.03
		C393.21,295.88,393.85,293.87,393.92,291.67z"/>
	<path class="st2" d="M241.06,285.19c-0.18-3.61,1.61-3.92,3.96-3.74c2.05,0.16,4.12,0.03,6.33,0.03
		c-1.71,7.4-3.39,14.52-4.99,21.66c-0.29,1.28-0.71,1.92-2.17,1.78c-1.64-0.15-3.31-0.16-4.95,0c-1.55,0.15-2.27-0.32-1.93-2.22
		c-1.76,1.2-3.13,2.41-4.99,2.66c-5.02,0.69-8.36-1.75-9.14-6.89c-0.87-5.73,0.73-10.76,4.7-15
		C230.82,280.36,237.68,279.29,241.06,285.19z M232.5,294.84c0.01,1.56-0.11,3.3,1.81,3.82c2.15,0.59,3.16-1,3.88-2.62
		c0.74-1.65,1.25-3.41,1.16-5.25c-0.07-1.35-0.43-2.64-1.9-3.06c-1.44-0.41-2.5,0.33-3.28,1.51
		C233.05,290.93,232.52,292.81,232.5,294.84z"/>
	<path class="st2" d="M360.72,305.42c-7.13,0-12.18-4.36-12.03-10.75c0.23-9.09,6.52-14,13.95-13.75
		c7.25,0.25,11.86,4.29,11.85,10.91C374.47,299.94,368.93,305.42,360.72,305.42z M358.14,295.21c-0.02,1.42,0.04,2.91,1.65,3.43
		c1.79,0.58,2.99-0.46,3.78-1.93c0.95-1.75,1.45-3.66,1.55-5.65c0.07-1.45-0.23-2.84-1.83-3.32c-1.55-0.47-2.62,0.33-3.44,1.61
		C358.71,291.15,358.28,293.13,358.14,295.21z"/>
	<path class="st2" d="M422.35,295.54c-2.08,0-4.17-0.02-6.25,0.02c-0.53,0.01-1.34-0.34-1.49,0.54c-0.12,0.7,0.13,1.43,0.73,1.85
		c1.66,1.15,3.6,1.39,5-0.04c1.09-1.11,1.95-1.01,3.11-0.63c1.39,0.46,2.76,1.08,4.19,1.36c1.66,0.33,1.73,0.97,0.88,2.22
		c-0.86,1.26-1.98,2.21-3.3,2.88c-4.51,2.28-9.21,2.51-13.8,0.49c-7.79-3.43-6.8-13.27-3.35-18.12c3.67-5.15,12.07-6.89,17.55-3.69
		c3.84,2.24,6.11,8.33,4.65,12.3c-0.34,0.93-0.99,0.81-1.66,0.82C426.52,295.55,424.43,295.54,422.35,295.54z M418.21,291.5
		c0.99-0.67,2.87,0.9,3.1-1.08c0.16-1.43-0.53-2.87-2.56-2.78c-1.69,0.07-3.95,1.74-3.58,3
		C415.65,292.25,417.23,290.88,418.21,291.5z"/>
	<path class="st2" d="M334.3,305.42c-7.05-0.03-11.76-3.94-11.96-9.93c-0.26-7.89,4.51-13.96,11.46-14.46
		c2.85-0.2,5.71-0.25,8.41,1.02c1.86,0.88,3.39,2.1,4.38,3.91c1.6,2.94,0.99,4.21-2.27,4.75c-1.02,0.17-2.05,0.27-3.07,0.44
		c-1.46,0.25-2.73,0.73-2.89-1.73c-0.13-2.05-2.67-2.58-4.19-0.96c-2.15,2.29-2.75,5.15-2.4,8.18c0.12,1.07,0.79,1.9,2.02,2.06
		c1.31,0.17,2.56-0.04,3.11-1.3c0.68-1.54,1.56-1.47,2.88-0.92c1.34,0.56,2.77,0.97,4.19,1.29c2,0.45,2.35,1.25,1.04,2.92
		C342.25,304.18,338.67,305.64,334.3,305.42z"/>
	<path class="st1" d="M393.92,291.67c-0.07,2.2-0.71,4.21-2.03,6.01c-0.71,0.97-1.67,1.17-2.76,1.03c-1.14-0.14-1.52-1.01-1.83-1.95
		c-0.73-2.21,0.55-6.88,2.25-8.42c0.89-0.8,1.95-0.96,2.89-0.52C394.08,288.57,393.94,290.18,393.92,291.67z"/>
	<path class="st1" d="M232.5,294.83c0.02-2.03,0.55-3.9,1.67-5.6c0.78-1.18,1.84-1.92,3.28-1.51c1.47,0.42,1.83,1.71,1.9,3.06
		c0.09,1.85-0.41,3.6-1.16,5.25c-0.73,1.62-1.73,3.21-3.88,2.62C232.39,298.14,232.51,296.4,232.5,294.83z"/>
	<path class="st1" d="M358.14,295.21c0.14-2.08,0.57-4.06,1.71-5.85c0.82-1.29,1.9-2.08,3.44-1.61c1.6,0.48,1.9,1.88,1.83,3.32
		c-0.1,1.99-0.6,3.9-1.55,5.65c-0.8,1.46-2,2.51-3.78,1.93C358.18,298.11,358.12,296.63,358.14,295.21z"/>
	<path class="st1" d="M418.21,291.5c-0.98-0.62-2.56,0.75-3.04-0.86c-0.38-1.26,1.88-2.93,3.58-3c2.03-0.09,2.73,1.36,2.56,2.78
		C421.09,292.4,419.2,290.83,418.21,291.5z"/>
	<g>
		<path id="star-svgrepo-com_1_" class="st3" d="M222.95,248.26c-0.04-0.13-0.16-0.23-0.3-0.25l-3.66-0.53l-1.64-3.31
			c-0.09-0.18-0.31-0.26-0.49-0.17c-0.07,0.04-0.13,0.09-0.17,0.17l-1.64,3.31l-3.66,0.53c-0.2,0.03-0.34,0.21-0.31,0.41
			c0.01,0.08,0.05,0.15,0.11,0.21l2.65,2.58l-0.63,3.64c-0.03,0.2,0.1,0.39,0.3,0.42c0.08,0.01,0.16,0,0.23-0.04l3.28-1.72
			l3.28,1.72c0.05,0.03,0.11,0.04,0.17,0.04l0,0c0.2,0,0.37-0.16,0.37-0.37c0-0.03,0-0.06-0.01-0.09l-0.62-3.61l2.65-2.58
			C222.95,248.54,222.99,248.39,222.95,248.26z M219.56,250.82c-0.09,0.08-2.47,1.84-2.45,1.96l2.88,1.46l-2.79-1.46
			c-0.11-0.06-0.23-0.06-0.34,0l-2.79,1.46l4.59-1.86c-0.22-0.82-0.49-1.62-0.82-2.4l-5.6-1.36l2.26,2.58
			c0.12-0.02,5.01-1.24,5.06-1.34l-2.53-4.71l1.39,2.82c0.05,0.11-1.18,5.03-1.07,5.05l4.46-4.4L219.56,250.82z"/>
	</g>
	<g>
		<path id="star-svgrepo-com_2_" class="st3" d="M359.3,259.57c-0.04-0.13-0.16-0.23-0.3-0.25l-3.66-0.53l-1.64-3.31
			c-0.09-0.18-0.31-0.26-0.49-0.17c-0.07,0.04-0.13,0.09-0.17,0.17l-1.64,3.31l-3.66,0.53c-0.2,0.03-0.34,0.21-0.31,0.41
			c0.01,0.08,0.05,0.15,0.11,0.21l2.65,2.58l-0.63,3.64c-0.03,0.2,0.1,0.39,0.3,0.42c0.08,0.01,0.16,0,0.23-0.04l3.28-1.72
			l3.28,1.72c0.05,0.03,0.11,0.04,0.17,0.04l0,0c0.2,0,0.37-0.16,0.37-0.37c0-0.03,0-0.06-0.01-0.09l-0.62-3.61l2.65-2.58
			C359.31,259.85,359.35,259.7,359.3,259.57z M355.91,262.13c-0.09,0.08-2.47,1.84-2.45,1.96l2.88,1.46l-2.79-1.46
			c-0.11-0.06-0.23-0.06-0.34,0l-2.79,1.46l4.59-1.86c-0.22-0.82-0.49-1.62-0.82-2.4l-5.6-1.36l2.26,2.58
			c0.12-0.02,5.01-1.24,5.06-1.34l-2.53-4.71l1.39,2.82c0.05,0.11-1.18,5.03-1.07,5.05l4.46-4.4L355.91,262.13z"/>
	</g>
	<g>
		<path id="star-svgrepo-com_3_" class="st3" d="M233,322.59c-0.04-0.13-0.16-0.23-0.3-0.25l-3.66-0.53l-1.64-3.31
			c-0.09-0.18-0.31-0.26-0.49-0.17c-0.07,0.04-0.13,0.09-0.17,0.17l-1.64,3.31l-3.66,0.53c-0.2,0.03-0.34,0.21-0.31,0.41
			c0.01,0.08,0.05,0.15,0.11,0.21l2.65,2.58l-0.63,3.64c-0.03,0.2,0.1,0.39,0.3,0.42c0.08,0.01,0.16,0,0.23-0.04l3.28-1.72
			l3.28,1.72c0.05,0.03,0.11,0.04,0.17,0.04l0,0c0.2,0,0.37-0.16,0.37-0.37c0-0.03,0-0.06-0.01-0.09l-0.62-3.61l2.65-2.58
			C233.01,322.87,233.04,322.72,233,322.59z M229.61,325.15c-0.09,0.08-2.47,1.84-2.45,1.96l2.88,1.46l-2.79-1.46
			c-0.11-0.06-0.23-0.06-0.34,0l-2.79,1.46l4.59-1.86c-0.22-0.82-0.49-1.62-0.82-2.4l-5.6-1.36l2.26,2.58
			c0.12-0.02,5.01-1.24,5.06-1.34l-2.53-4.71l1.39,2.82c0.05,0.11-1.18,5.03-1.07,5.05l4.46-4.4L229.61,325.15z"/>
	</g>
	<g>
		<path id="star-svgrepo-com_4_" class="st3" d="M251.23,333.9c-0.04-0.13-0.16-0.23-0.3-0.25l-3.66-0.53l-1.64-3.31
			c-0.09-0.18-0.31-0.26-0.49-0.17c-0.07,0.04-0.13,0.09-0.17,0.17l-1.64,3.31l-3.66,0.53c-0.2,0.03-0.34,0.21-0.31,0.41
			c0.01,0.08,0.05,0.15,0.11,0.21l2.65,2.58l-0.63,3.64c-0.03,0.2,0.1,0.39,0.3,0.42c0.08,0.01,0.16,0,0.23-0.04l3.28-1.72
			l3.28,1.72c0.05,0.03,0.11,0.04,0.17,0.04l0,0c0.2,0,0.37-0.16,0.37-0.37c0-0.03,0-0.06-0.01-0.09l-0.62-3.61l2.65-2.58
			C251.24,334.17,251.27,334.03,251.23,333.9z M247.84,336.46c-0.09,0.08-2.47,1.84-2.45,1.96l2.88,1.46l-2.79-1.46
			c-0.11-0.06-0.23-0.06-0.34,0l-2.79,1.46l4.59-1.86c-0.22-0.82-0.49-1.62-0.82-2.4l-5.6-1.36l2.26,2.58
			c0.12-0.02,5.01-1.24,5.06-1.34l-2.53-4.71l1.39,2.82c0.05,0.11-1.18,5.03-1.07,5.05l4.46-4.4L247.84,336.46z"/>
	</g>
	<g>
		<path id="star-svgrepo-com_5_" class="st3" d="M328.1,318.13c-0.04-0.13-0.16-0.23-0.3-0.25l-3.66-0.53l-1.64-3.31
			c-0.09-0.18-0.31-0.26-0.49-0.17c-0.07,0.04-0.13,0.09-0.17,0.17l-1.64,3.31l-3.66,0.53c-0.2,0.03-0.34,0.21-0.31,0.41
			c0.01,0.08,0.05,0.15,0.11,0.21l2.65,2.58l-0.63,3.64c-0.03,0.2,0.1,0.39,0.3,0.42c0.08,0.01,0.16,0,0.23-0.04l3.28-1.72
			l3.28,1.72c0.05,0.03,0.11,0.04,0.17,0.04l0,0c0.2,0,0.37-0.16,0.37-0.37c0-0.03,0-0.06-0.01-0.09l-0.62-3.61l2.65-2.58
			C328.11,318.4,328.15,318.26,328.1,318.13z M324.71,320.69c-0.09,0.08-2.47,1.84-2.45,1.96l2.88,1.46l-2.79-1.46
			c-0.11-0.06-0.23-0.06-0.34,0l-2.79,1.46l4.59-1.86c-0.22-0.82-0.49-1.62-0.82-2.4l-5.6-1.36l2.26,2.58
			c0.12-0.02,5.01-1.24,5.06-1.34l-2.53-4.71l1.39,2.82c0.05,0.11-1.18,5.03-1.07,5.05l4.46-4.4L324.71,320.69z"/>
	</g>
</g>
</svg>
