<?xml version="1.0" encoding="UTF-8" standalone="no"?>
<svg
   xmlns:dc="http://purl.org/dc/elements/1.1/"
   xmlns:cc="http://creativecommons.org/ns#"
   xmlns:rdf="http://www.w3.org/1999/02/22-rdf-syntax-ns#"
   xmlns:svg="http://www.w3.org/2000/svg"
   xmlns="http://www.w3.org/2000/svg"
   xmlns:sodipodi="http://sodipodi.sourceforge.net/DTD/sodipodi-0.dtd"
   xmlns:inkscape="http://www.inkscape.org/namespaces/inkscape"
   inkscape:version="1.0 (4035a4fb49, 2020-05-01)"
   height="160.67999"
   width="416.32999"
   sodipodi:docname="SmartScop2.svg"
   xml:space="preserve"
   viewBox="0 0 416.32999 160.67999"
   y="0px"
   x="0px"
   id="Camada_1"
   version="1.1"><metadata
   id="metadata56"><rdf:RDF><cc:Work
       rdf:about=""><dc:format>image/svg+xml</dc:format><dc:type
         rdf:resource="http://purl.org/dc/dcmitype/StillImage" /><dc:title></dc:title></cc:Work></rdf:RDF></metadata><defs
   id="defs54">
	
	
	
	
	
	
	
	
	
	
	
	
	
	
	
	
	
	
	
	
</defs><sodipodi:namedview
   inkscape:current-layer="Camada_1"
   inkscape:window-maximized="1"
   inkscape:window-y="0"
   inkscape:window-x="0"
   inkscape:cy="185.26"
   inkscape:cx="222.59"
   inkscape:zoom="1.0820707"
   fit-margin-bottom="0"
   fit-margin-right="0"
   fit-margin-left="0"
   fit-margin-top="0"
   showgrid="false"
   id="namedview52"
   inkscape:window-height="1054"
   inkscape:window-width="1920"
   inkscape:pageshadow="2"
   inkscape:pageopacity="0"
   guidetolerance="10"
   gridtolerance="10"
   objecttolerance="10"
   borderopacity="1"
   bordercolor="#666666"
   pagecolor="#ffffff" />
<style
   id="style2"
   type="text/css">
	.st0{fill:#105088;}
	.st1{fill:#043157;}
	.st2{fill:#F9FAFB;}
	.st3{fill:#FFFFFF;}
</style>
<path
   class="st0"
   d="m 416.33,80.76 c 0,44.37 -90.8,79.92 -206.62,79.92 C 93.89,160.68 0,124.71 0,80.34 0,35.97 93.89,0 209.71,0 325.53,0 416.33,36.39 416.33,80.76 Z"
   id="path4" /><path
   class="st1"
   d="m 356.24999,80.76 a 172.50999,64.300003 0 0 1 -172.51,64.3 172.50999,64.300003 0 0 1 -172.509991,-64.3 172.50999,64.300003 0 0 1 172.509991,-64.3 172.50999,64.300003 0 0 1 172.51,64.3"
   style="fill:#043157"
   id="ellipse6" /><path
   class="st2"
   d="m 108.08,74.05 c 6.76,-5.41 11.53,-5.21 14.72,0.5 2.04,-2.67 4.48,-4.46 8.06,-4.35 4.81,0.14 7.64,3.29 6.68,8.01 -0.98,4.8 -2.28,9.54 -3.31,14.33 -0.27,1.25 -0.71,1.69 -2,1.64 -2.6,-0.1 -5.2,-0.03 -7.97,-0.03 1.02,-4.3 2.05,-8.37 2.93,-12.47 0.31,-1.44 1.04,-3.42 -1.08,-3.98 -1.99,-0.52 -3.24,0.96 -3.72,2.78 -1.06,3.99 -2.07,8 -2.92,12.04 -0.28,1.32 -0.76,1.7 -2.03,1.66 -2.59,-0.08 -5.19,-0.02 -7.98,-0.02 1.06,-4.43 2.06,-8.61 3.04,-12.79 0.34,-1.46 0.76,-3.12 -1.23,-3.66 -1.82,-0.49 -3.05,0.68 -3.49,2.29 -1.09,3.98 -2.13,8 -2.91,12.05 -0.34,1.77 -1.08,2.3 -2.74,2.13 -1.03,-0.11 -2.08,-0.02 -3.13,-0.02 -4.37,0 -4.35,0.01 -3.38,-4.11 1.37,-5.78 2.75,-11.57 4.01,-17.38 0.31,-1.43 0.8,-2.14 2.37,-1.95 1.11,0.13 2.26,0.03 3.39,0.03 3.24,0 3.24,0 2.69,3.3 z"
   id="path8" /><path
   class="st2"
   d="m 203.88,70.75 c 1.57,0 2.95,0.11 4.31,-0.03 1.63,-0.17 1.7,0.62 1.36,1.81 -0.14,0.5 -0.36,0.99 -0.38,1.5 -0.13,2.77 -1.46,3.96 -4.27,3.4 -2.04,-0.4 -2.97,0.49 -3.15,2.56 -0.13,1.53 -0.74,3.01 -0.98,4.53 -0.41,2.72 0.25,3.43 3.01,3.47 0.85,0.01 1.7,0 2.66,0 -0.08,0.46 -0.11,0.79 -0.2,1.1 -0.45,1.62 0.27,3.91 -1.32,4.78 -2.48,1.35 -5.45,1.03 -8.18,0.65 -4.52,-0.63 -6.62,-3.88 -5.8,-8.66 0.39,-2.29 0.92,-4.55 1.48,-6.8 0.31,-1.27 -0.08,-1.97 -1.34,-1.59 -1.07,0.33 -2.75,-1.61 -3.26,0.88 -0.09,0.46 -0.76,0.12 -1.16,0.06 -4.06,-0.64 -6.65,0.92 -7.75,4.92 -0.83,2.98 -1.48,6.02 -2.09,9.05 -0.27,1.34 -0.82,1.88 -2.23,1.8 -1.99,-0.12 -4,-0.09 -5.99,-0.01 -1.31,0.06 -1.88,-0.2 -1.53,-1.68 1.61,-6.79 3.15,-13.59 4.7,-20.39 0.23,-0.99 0.69,-1.43 1.78,-1.39 2.25,0.08 4.5,0.02 7,0.02 -0.06,1.08 -0.11,2.04 -0.19,3.54 2.24,-2.47 4.29,-4.41 7.47,-4.08 0.78,0.08 1.51,0.23 2.27,0.41 3.28,0.78 4.34,0.21 4.89,-3.05 0.27,-1.61 1.04,-2.15 2.42,-2.48 2.27,-0.53 4.55,-1.05 6.76,-1.76 1.45,-0.46 1.47,0.14 1.21,1.2 -0.5,2.03 -0.97,4.02 -1.5,6.24 z"
   id="path10" /><path
   class="st2"
   d="m 91.34,74.19 c -1.95,-2.35 -4.49,-3.86 -7.62,-4.35 -0.79,-0.12 -1.54,-0.17 -2.3,0.12 -0.72,0.28 -1.55,0.39 -1.68,1.38 -0.15,1.07 0.53,1.67 1.34,2 2.4,0.97 4.9,1.73 7.27,2.76 2.71,1.18 4.92,2.9 5.52,6.06 1.02,5.37 -1.71,10.07 -7.31,11.78 -6.29,1.92 -15.01,0.77 -20.34,-5.26 -0.87,-0.98 -1.07,-1.66 0,-2.5 0.07,-0.05 0.12,-0.13 0.18,-0.19 1.16,-1.29 2.1,-3.19 3.53,-3.7 1.67,-0.59 2.39,1.9 3.84,2.72 2.16,1.22 4.38,2.08 6.8,2.35 1.46,0.17 2.97,-0.33 3.31,-1.88 0.33,-1.5 -1.13,-1.87 -2.27,-2.32 -2.72,-1.08 -5.63,-1.66 -8.11,-3.38 -5.4,-3.74 -5.37,-11.43 0.11,-15.08 6.28,-4.19 17.24,-2.7 22.27,2.98 0.7,0.79 0.94,1.29 0.04,2.09 -1.56,1.39 -3.01,2.88 -4.58,4.42 z"
   id="path12" /><path
   class="st2"
   d="m 212.61,81.7 c 2.53,3.13 5.66,4.98 9.52,5.55 0.67,0.1 1.38,0.08 2.05,-0.04 0.98,-0.18 1.85,-0.69 1.99,-1.78 0.17,-1.33 -0.91,-1.77 -1.87,-2.14 -2.01,-0.77 -4.11,-1.34 -6.09,-2.2 -5.61,-2.42 -7.85,-7.27 -5.67,-12.38 1.53,-3.6 4.66,-5.36 8.3,-5.96 6.34,-1.05 12.27,-0.21 17.07,4.67 1,1.02 1.29,1.71 0.02,2.63 -0.42,0.3 -0.74,0.73 -1.11,1.09 -0.98,0.98 -1.83,2.47 -2.98,2.75 -0.75,0.19 -1.89,-1.45 -2.93,-2.16 -2.13,-1.44 -4.47,-2.27 -7.09,-1.79 -0.75,0.14 -1.54,0.39 -1.71,1.36 -0.19,1.06 0.44,1.66 1.27,2.01 1.67,0.71 3.37,1.34 5.08,1.97 6.42,2.35 8.22,4.68 7.83,10.2 -0.3,4.31 -3.81,8.03 -9.16,8.92 -6.73,1.12 -12.94,-0.18 -18.07,-5.1 -1.26,-1.21 -1.77,-2.16 -0.2,-3.55 1.34,-1.19 2.45,-2.64 3.75,-4.05 z"
   id="path14" /><path
   class="st2"
   d="m 302.12,90.95 c -0.91,3.86 -1.91,7.58 -2.61,11.36 -0.28,1.49 -0.85,1.83 -2.2,1.76 -2.51,-0.13 -6.01,0.83 -7.25,-0.45 -1.3,-1.33 0.61,-4.58 1.14,-6.97 1.74,-7.98 3.67,-15.92 5.4,-23.91 0.34,-1.58 0.93,-2.16 2.53,-2 1.38,0.14 2.79,0.17 4.16,0 2.13,-0.26 2.84,0.54 2.01,3.12 2.49,-2.14 4.59,-3.81 7.61,-3.64 3.32,0.19 5.67,1.63 6.53,4.89 1.57,5.96 0.43,11.53 -3.48,16.27 -4.03,4.84 -9.58,4.61 -13.84,-0.43 z m 8.39,-10.02 c 0.02,-1.49 0.16,-3.1 -1.46,-3.85 -0.95,-0.44 -2.01,-0.28 -2.89,0.52 -1.7,1.54 -2.98,6.21 -2.25,8.42 0.31,0.94 0.69,1.8 1.83,1.95 1.09,0.13 2.04,-0.07 2.76,-1.03 1.3,-1.8 1.94,-3.81 2.01,-6.01 z"
   id="path16" /><path
   class="st2"
   d="m 157.65,74.45 c -0.18,-3.61 1.61,-3.92 3.96,-3.74 2.05,0.16 4.12,0.03 6.33,0.03 -1.71,7.4 -3.39,14.52 -4.99,21.66 -0.29,1.28 -0.71,1.92 -2.17,1.78 -1.64,-0.15 -3.31,-0.16 -4.95,0 -1.55,0.15 -2.27,-0.32 -1.93,-2.22 -1.76,1.2 -3.13,2.41 -4.99,2.66 -5.02,0.69 -8.36,-1.75 -9.14,-6.89 -0.87,-5.73 0.73,-10.76 4.7,-15 2.94,-3.11 9.8,-4.18 13.18,1.72 z m -8.56,9.65 c 0.01,1.56 -0.11,3.3 1.81,3.82 2.15,0.59 3.16,-1 3.88,-2.62 0.74,-1.65 1.25,-3.41 1.16,-5.25 -0.07,-1.35 -0.43,-2.64 -1.9,-3.06 -1.44,-0.41 -2.5,0.33 -3.28,1.51 -1.12,1.69 -1.65,3.57 -1.67,5.6 z"
   id="path18" /><path
   class="st2"
   d="m 277.31,94.68 c -7.13,0 -12.18,-4.36 -12.03,-10.75 0.23,-9.09 6.52,-14 13.95,-13.75 7.25,0.25 11.86,4.29 11.85,10.91 -0.02,8.11 -5.56,13.59 -13.77,13.59 z m -2.58,-10.21 c -0.02,1.42 0.04,2.91 1.65,3.43 1.79,0.58 2.99,-0.46 3.78,-1.93 0.95,-1.75 1.45,-3.66 1.55,-5.65 0.07,-1.45 -0.23,-2.84 -1.83,-3.32 -1.55,-0.47 -2.62,0.33 -3.44,1.61 -1.14,1.8 -1.57,3.78 -1.71,5.86 z"
   id="path20" /><path
   class="st2"
   d="m 338.94,84.8 c -2.08,0 -4.17,-0.02 -6.25,0.02 -0.53,0.01 -1.34,-0.34 -1.49,0.54 -0.12,0.7 0.13,1.43 0.73,1.85 1.66,1.15 3.6,1.39 5,-0.04 1.09,-1.11 1.95,-1.01 3.11,-0.63 1.39,0.46 2.76,1.08 4.19,1.36 1.66,0.33 1.73,0.97 0.88,2.22 -0.86,1.26 -1.98,2.21 -3.3,2.88 -4.51,2.28 -9.21,2.51 -13.8,0.49 -7.79,-3.43 -6.8,-13.27 -3.35,-18.12 3.67,-5.15 12.07,-6.89 17.55,-3.69 3.84,2.24 6.11,8.33 4.65,12.3 -0.34,0.93 -0.99,0.81 -1.66,0.82 -2.09,0.01 -4.18,0 -6.26,0 z m -4.14,-4.04 c 0.99,-0.67 2.87,0.9 3.1,-1.08 0.16,-1.43 -0.53,-2.87 -2.56,-2.78 -1.69,0.07 -3.95,1.74 -3.58,3 0.48,1.61 2.06,0.24 3.04,0.86 z"
   id="path22" /><path
   class="st2"
   d="m 250.89,94.68 c -7.05,-0.03 -11.76,-3.94 -11.96,-9.93 -0.26,-7.89 4.51,-13.96 11.46,-14.46 2.85,-0.2 5.71,-0.25 8.41,1.02 1.86,0.88 3.39,2.1 4.38,3.91 1.6,2.94 0.99,4.21 -2.27,4.75 -1.02,0.17 -2.05,0.27 -3.07,0.44 -1.46,0.25 -2.73,0.73 -2.89,-1.73 -0.13,-2.05 -2.67,-2.58 -4.19,-0.96 -2.15,2.29 -2.75,5.15 -2.4,8.18 0.12,1.07 0.79,1.9 2.02,2.06 1.31,0.17 2.56,-0.04 3.11,-1.3 0.68,-1.54 1.56,-1.47 2.88,-0.92 1.34,0.56 2.77,0.97 4.19,1.29 2,0.45 2.35,1.25 1.04,2.92 -2.76,3.49 -6.34,4.95 -10.71,4.73 z"
   id="path24" /><path
   class="st1"
   d="m 310.51,80.93 c -0.07,2.2 -0.71,4.21 -2.03,6.01 -0.71,0.97 -1.67,1.17 -2.76,1.03 -1.14,-0.14 -1.52,-1.01 -1.83,-1.95 -0.73,-2.21 0.55,-6.88 2.25,-8.42 0.89,-0.8 1.95,-0.96 2.89,-0.52 1.64,0.75 1.5,2.36 1.48,3.85 z"
   id="path26" /><path
   class="st1"
   d="m 149.09,84.09 c 0.02,-2.03 0.55,-3.9 1.67,-5.6 0.78,-1.18 1.84,-1.92 3.28,-1.51 1.47,0.42 1.83,1.71 1.9,3.06 0.09,1.85 -0.41,3.6 -1.16,5.25 -0.73,1.62 -1.73,3.21 -3.88,2.62 -1.92,-0.51 -1.8,-2.25 -1.81,-3.82 z"
   id="path28" /><path
   class="st1"
   d="m 274.73,84.47 c 0.14,-2.08 0.57,-4.06 1.71,-5.85 0.82,-1.29 1.9,-2.08 3.44,-1.61 1.6,0.48 1.9,1.88 1.83,3.32 -0.1,1.99 -0.6,3.9 -1.55,5.65 -0.8,1.46 -2,2.51 -3.78,1.93 -1.61,-0.54 -1.67,-2.02 -1.65,-3.44 z"
   id="path30" /><path
   class="st1"
   d="m 334.8,80.76 c -0.98,-0.62 -2.56,0.75 -3.04,-0.86 -0.38,-1.26 1.88,-2.93 3.58,-3 2.03,-0.09 2.73,1.36 2.56,2.78 -0.22,1.98 -2.11,0.41 -3.1,1.08 z"
   id="path32" /><g
   transform="translate(-83.41,-210.74)"
   id="g35">
		<path
   id="star-svgrepo-com_1_"
   class="st3"
   d="m 222.95,248.26 c -0.04,-0.13 -0.16,-0.23 -0.3,-0.25 l -3.66,-0.53 -1.64,-3.31 c -0.09,-0.18 -0.31,-0.26 -0.49,-0.17 -0.07,0.04 -0.13,0.09 -0.17,0.17 l -1.64,3.31 -3.66,0.53 c -0.2,0.03 -0.34,0.21 -0.31,0.41 0.01,0.08 0.05,0.15 0.11,0.21 l 2.65,2.58 -0.63,3.64 c -0.03,0.2 0.1,0.39 0.3,0.42 0.08,0.01 0.16,0 0.23,-0.04 l 3.28,-1.72 3.28,1.72 c 0.05,0.03 0.11,0.04 0.17,0.04 v 0 c 0.2,0 0.37,-0.16 0.37,-0.37 0,-0.03 0,-0.06 -0.01,-0.09 l -0.62,-3.61 2.65,-2.58 c 0.09,-0.08 0.13,-0.23 0.09,-0.36 z m -3.39,2.56 c -0.09,0.08 -2.47,1.84 -2.45,1.96 l 2.88,1.46 -2.79,-1.46 c -0.11,-0.06 -0.23,-0.06 -0.34,0 l -2.79,1.46 4.59,-1.86 c -0.22,-0.82 -0.49,-1.62 -0.82,-2.4 l -5.6,-1.36 2.26,2.58 c 0.12,-0.02 5.01,-1.24 5.06,-1.34 l -2.53,-4.71 1.39,2.82 c 0.05,0.11 -1.18,5.03 -1.07,5.05 l 4.46,-4.4 z" />
	</g><g
   transform="translate(-83.41,-210.74)"
   id="g38">
		<path
   id="star-svgrepo-com_2_"
   class="st3"
   d="m 359.3,259.57 c -0.04,-0.13 -0.16,-0.23 -0.3,-0.25 l -3.66,-0.53 -1.64,-3.31 c -0.09,-0.18 -0.31,-0.26 -0.49,-0.17 -0.07,0.04 -0.13,0.09 -0.17,0.17 l -1.64,3.31 -3.66,0.53 c -0.2,0.03 -0.34,0.21 -0.31,0.41 0.01,0.08 0.05,0.15 0.11,0.21 l 2.65,2.58 -0.63,3.64 c -0.03,0.2 0.1,0.39 0.3,0.42 0.08,0.01 0.16,0 0.23,-0.04 l 3.28,-1.72 3.28,1.72 c 0.05,0.03 0.11,0.04 0.17,0.04 v 0 c 0.2,0 0.37,-0.16 0.37,-0.37 0,-0.03 0,-0.06 -0.01,-0.09 l -0.62,-3.61 2.65,-2.58 c 0.1,-0.08 0.14,-0.23 0.09,-0.36 z m -3.39,2.56 c -0.09,0.08 -2.47,1.84 -2.45,1.96 l 2.88,1.46 -2.79,-1.46 c -0.11,-0.06 -0.23,-0.06 -0.34,0 l -2.79,1.46 4.59,-1.86 c -0.22,-0.82 -0.49,-1.62 -0.82,-2.4 l -5.6,-1.36 2.26,2.58 c 0.12,-0.02 5.01,-1.24 5.06,-1.34 l -2.53,-4.71 1.39,2.82 c 0.05,0.11 -1.18,5.03 -1.07,5.05 l 4.46,-4.4 z" />
	</g><g
   transform="translate(-83.41,-210.74)"
   id="g41">
		<path
   id="star-svgrepo-com_3_"
   class="st3"
   d="m 233,322.59 c -0.04,-0.13 -0.16,-0.23 -0.3,-0.25 l -3.66,-0.53 -1.64,-3.31 c -0.09,-0.18 -0.31,-0.26 -0.49,-0.17 -0.07,0.04 -0.13,0.09 -0.17,0.17 l -1.64,3.31 -3.66,0.53 c -0.2,0.03 -0.34,0.21 -0.31,0.41 0.01,0.08 0.05,0.15 0.11,0.21 l 2.65,2.58 -0.63,3.64 c -0.03,0.2 0.1,0.39 0.3,0.42 0.08,0.01 0.16,0 0.23,-0.04 l 3.28,-1.72 3.28,1.72 c 0.05,0.03 0.11,0.04 0.17,0.04 v 0 c 0.2,0 0.37,-0.16 0.37,-0.37 0,-0.03 0,-0.06 -0.01,-0.09 l -0.62,-3.61 2.65,-2.58 c 0.1,-0.08 0.13,-0.23 0.09,-0.36 z m -3.39,2.56 c -0.09,0.08 -2.47,1.84 -2.45,1.96 l 2.88,1.46 -2.79,-1.46 c -0.11,-0.06 -0.23,-0.06 -0.34,0 l -2.79,1.46 4.59,-1.86 c -0.22,-0.82 -0.49,-1.62 -0.82,-2.4 l -5.6,-1.36 2.26,2.58 c 0.12,-0.02 5.01,-1.24 5.06,-1.34 l -2.53,-4.71 1.39,2.82 c 0.05,0.11 -1.18,5.03 -1.07,5.05 l 4.46,-4.4 z" />
	</g><g
   transform="translate(-83.41,-210.74)"
   id="g44">
		<path
   id="star-svgrepo-com_4_"
   class="st3"
   d="m 251.23,333.9 c -0.04,-0.13 -0.16,-0.23 -0.3,-0.25 l -3.66,-0.53 -1.64,-3.31 c -0.09,-0.18 -0.31,-0.26 -0.49,-0.17 -0.07,0.04 -0.13,0.09 -0.17,0.17 l -1.64,3.31 -3.66,0.53 c -0.2,0.03 -0.34,0.21 -0.31,0.41 0.01,0.08 0.05,0.15 0.11,0.21 l 2.65,2.58 -0.63,3.64 c -0.03,0.2 0.1,0.39 0.3,0.42 0.08,0.01 0.16,0 0.23,-0.04 l 3.28,-1.72 3.28,1.72 c 0.05,0.03 0.11,0.04 0.17,0.04 v 0 c 0.2,0 0.37,-0.16 0.37,-0.37 0,-0.03 0,-0.06 -0.01,-0.09 l -0.62,-3.61 2.65,-2.58 c 0.1,-0.09 0.13,-0.23 0.09,-0.36 z m -3.39,2.56 c -0.09,0.08 -2.47,1.84 -2.45,1.96 l 2.88,1.46 -2.79,-1.46 c -0.11,-0.06 -0.23,-0.06 -0.34,0 l -2.79,1.46 4.59,-1.86 c -0.22,-0.82 -0.49,-1.62 -0.82,-2.4 l -5.6,-1.36 2.26,2.58 c 0.12,-0.02 5.01,-1.24 5.06,-1.34 l -2.53,-4.71 1.39,2.82 c 0.05,0.11 -1.18,5.03 -1.07,5.05 l 4.46,-4.4 z" />
	</g><g
   transform="translate(-83.41,-210.74)"
   id="g47">
		<path
   id="star-svgrepo-com_5_"
   class="st3"
   d="m 328.1,318.13 c -0.04,-0.13 -0.16,-0.23 -0.3,-0.25 l -3.66,-0.53 -1.64,-3.31 c -0.09,-0.18 -0.31,-0.26 -0.49,-0.17 -0.07,0.04 -0.13,0.09 -0.17,0.17 l -1.64,3.31 -3.66,0.53 c -0.2,0.03 -0.34,0.21 -0.31,0.41 0.01,0.08 0.05,0.15 0.11,0.21 l 2.65,2.58 -0.63,3.64 c -0.03,0.2 0.1,0.39 0.3,0.42 0.08,0.01 0.16,0 0.23,-0.04 l 3.28,-1.72 3.28,1.72 c 0.05,0.03 0.11,0.04 0.17,0.04 v 0 c 0.2,0 0.37,-0.16 0.37,-0.37 0,-0.03 0,-0.06 -0.01,-0.09 l -0.62,-3.61 2.65,-2.58 c 0.1,-0.09 0.14,-0.23 0.09,-0.36 z m -3.39,2.56 c -0.09,0.08 -2.47,1.84 -2.45,1.96 l 2.88,1.46 -2.79,-1.46 c -0.11,-0.06 -0.23,-0.06 -0.34,0 l -2.79,1.46 4.59,-1.86 c -0.22,-0.82 -0.49,-1.62 -0.82,-2.4 l -5.6,-1.36 2.26,2.58 c 0.12,-0.02 5.01,-1.24 5.06,-1.34 l -2.53,-4.71 1.39,2.82 c 0.05,0.11 -1.18,5.03 -1.07,5.05 l 4.46,-4.4 z" />
	</g>
</svg>
